<svg xmlns="http://www.w3.org/2000/svg" viewBox="0 0 405.89 213.18"><defs><style>.cls-1{fill:#fff;stroke:#231f20;stroke-miterlimit:10;stroke-width:9px;}</style></defs><title>poemsAsset 1</title><g id="Layer_2" data-name="Layer 2"><g id="Layer_1-2" data-name="Layer 1"><path class="cls-1" d="M105.58,12.58s-90-36-100,44,53,40,50,19,31-22,36-5-11,22.53,21,33.76,49-11.76,45-30.76-42.05-13.72-36,10,26,40,42-2c0,0-11,41.85,9,25.92s11-48.92,43-43.92-6,81-23,28,74-34,47,74-96-10,47-102c25-14,46,65,0,35s32-53,49-31,11,39,11,39,23-108,55,0"/></g></g></svg>